# xmcd CD database file
#
# Track frame offsets:
#	150
#	13435
#	26736
#	40916
#	51387
#	60727
#	72039
#	82952
#	102467
#	112965
#	127019
#	140544
#	156258
#	171220
#	185967
#	199812
#
# Disc length: 2860 seconds
#
# Revision: 1
# Processed by: cddbd v1.5.2PL0 Copyright (c) Steve Scherf et al.
# Submitted via: CDex 1.70beta2
#
DISCID=ef0b2a10
DTITLE=Kenny Rogers - Kenny Rogers - The Gambler - Disc 2
DYEAR=1999
DGENRE=Country
TTITLE0=Ruby Don'T Take Your Love To Town
TTITLE1=Shine On Ruby Mountain
TTITLE2=Loser
TTITLE3=Good time Liberator
TTITLE4=Camptown Ladies
TTITLE5=A Poem For My Little Lady
TTITLE6=Alway Leaving, Always Gone
TTITLE7=Lay It Down
TTITLE8=Ticket To Nowhere
TTITLE9=Sunshine
TTITLE10=I'm Gonna Sing You A Sad Song
TTITLE11=Good Lady Of Toronto
TTITLE12=All Gods Lovely Children
TTITLE13=Heed The Call
TTITLE14=Molly
TTITLE15=Tell It All Bother
EXTD=YEAR: 1999
EXTT0=
EXTT1=
EXTT2=
EXTT3=
EXTT4=
EXTT5=
EXTT6=
EXTT7=
EXTT8=
EXTT9=
EXTT10=
EXTT11=
EXTT12=
EXTT13=
EXTT14=
EXTT15=
PLAYORDER=
